<svg width="15" height="14" viewBox="0 0 15 14" fill="none" xmlns="http://www.w3.org/2000/svg">
<path d="M2.05513 1.66668H5.04843L6.01324 4.0787L4.46332 5.11198C4.27785 5.23562 4.16645 5.44378 4.16645 5.66668C4.16814 5.7291 4.16645 5.66734 4.16645 5.66734L4.16645 5.66804L4.16646 5.66953L4.16648 5.6729L4.16658 5.68112C4.16667 5.68727 4.16684 5.69473 4.16712 5.70347C4.16769 5.72095 4.16871 5.74354 4.17053 5.77092C4.17418 5.82565 4.18106 5.89964 4.19398 5.99012C4.21982 6.17099 4.26997 6.41875 4.36733 6.71083C4.56282 7.2973 4.94694 8.05664 5.69505 8.80475C6.44316 9.55286 7.2025 9.93698 7.78897 10.1325C8.08104 10.2298 8.32881 10.28 8.50967 10.3058C8.60016 10.3187 8.67414 10.3256 8.72888 10.3293C8.75625 10.3311 8.77885 10.3321 8.79632 10.3327C8.80506 10.333 8.81253 10.3331 8.81867 10.3332L8.8269 10.3333L8.83026 10.3333L8.83175 10.3333L8.83245 10.3333C8.83245 10.3333 8.90687 10.3293 8.83312 10.3333C9.08563 10.3333 9.31647 10.1907 9.4294 9.96482L9.87587 9.07189L12.8331 9.56476V12.4447C11.4257 12.6482 7.62472 12.8488 4.63786 9.86194C1.65099 6.87507 1.8516 3.07408 2.05513 1.66668ZM5.54888 5.99073L6.75284 5.1881C7.27746 4.83835 7.48537 4.16893 7.25121 3.58351L6.2864 1.17149C6.08391 0.665278 5.59364 0.333344 5.04843 0.333344H2.0203C1.41463 0.333344 0.844509 0.754118 0.74508 1.41128C0.518873 2.90634 0.210975 7.32068 3.69505 10.8047C7.17912 14.2888 11.5935 13.9809 13.0885 13.7547C13.7457 13.6553 14.1665 13.0852 14.1665 12.4795V9.56476C14.1665 8.91298 13.6952 8.35672 13.0523 8.24957L10.0951 7.7567C9.51769 7.66047 8.94507 7.95206 8.6833 8.4756L8.4523 8.93759C8.3797 8.91978 8.29865 8.8969 8.2106 8.86756C7.79707 8.72971 7.22308 8.44716 6.63786 7.86194C6.05263 7.27671 5.77008 6.70272 5.63224 6.28919C5.59499 6.17745 5.56818 6.07698 5.54888 5.99073Z" fill="#DDDDDD"/>
</svg>
