<svg width="15" height="13" viewBox="0 0 15 13" fill="none" xmlns="http://www.w3.org/2000/svg">
<path d="M13.0352 0.989587C12.8425 0.997967 12.6657 1.05337 12.5104 1.11459C12.3669 1.17109 11.8517 1.38765 11.0312 1.73177C10.2108 2.0759 9.12365 2.53216 7.96484 3.01954C5.64723 3.99428 3.04283 5.09075 1.70833 5.65235C1.66251 5.67144 1.47639 5.72842 1.27083 5.88542C1.0648 6.04279 0.835938 6.38431 0.835938 6.75782C0.835938 7.05912 0.986347 7.36598 1.16797 7.54167C1.34959 7.71736 1.53366 7.7995 1.6875 7.86068V7.85938C2.20752 8.06656 3.76046 8.68796 4.13021 8.83594C4.26136 9.22896 4.82439 10.9115 4.95833 11.3346H4.95703C5.05171 11.6341 5.14399 11.8293 5.27214 11.9922C5.33621 12.0736 5.41269 12.1475 5.50651 12.2057C5.54251 12.2281 5.58236 12.2454 5.6224 12.2617C5.62797 12.2641 5.63372 12.2647 5.63932 12.2669L5.6237 12.263C5.6353 12.2677 5.64572 12.2746 5.65755 12.2786C5.67683 12.2853 5.69019 12.2851 5.71615 12.2904C5.80748 12.3185 5.89865 12.3372 5.98307 12.3372C6.34548 12.3372 6.56771 12.1406 6.56771 12.1406L6.58203 12.1302L8.14713 10.806L10.0638 12.5794C10.0988 12.6289 10.3731 13 11.0078 13C11.3866 13 11.686 12.8125 11.8776 12.6159C12.0692 12.4192 12.1885 12.218 12.2422 11.9453L12.2435 11.944C12.2863 11.7239 14.1211 2.51042 14.1211 2.51042L14.1172 2.52605C14.1743 2.27115 14.1912 2.02465 14.1237 1.77344C14.0562 1.52224 13.8742 1.27709 13.6549 1.14844C13.4357 1.0198 13.2278 0.981207 13.0352 0.989587ZM12.7721 2.44922C12.6996 2.81324 11.056 11.0706 10.9544 11.5885L8.1862 9.02735L6.3151 10.6094L6.83333 8.58334C6.83333 8.58334 10.4084 4.96458 10.6237 4.75391C10.797 4.58524 10.8333 4.52612 10.8333 4.46745C10.8333 4.38945 10.7932 4.33334 10.7005 4.33334C10.6172 4.33334 10.504 4.41319 10.444 4.45053C9.68158 4.92586 6.43419 6.77646 4.83724 7.6849C4.74113 7.64636 3.29826 7.06698 2.52083 6.75651C3.90368 6.17452 6.2741 5.17721 8.48177 4.2487C9.64038 3.76141 10.7272 3.30474 11.5469 2.96094C12.2388 2.67074 12.5997 2.52047 12.7721 2.44922ZM10.9349 11.6836H10.9362C10.9362 11.6838 10.935 11.6873 10.9349 11.6875C10.9357 11.6832 10.9343 11.687 10.9349 11.6836Z" fill="#DDDDDD"/>
</svg>
